<svg xmlns="http://www.w3.org/2000/svg">
  <!-- DISCORD -->
  <symbol id="icon-discord" viewBox="0 0 100 100">
    <path fill="#FFFFFF" d="M41,40.7c-2.8,0-5.1,2.5-5.1,5.5s2.3,5.5,5.1,5.5c2.8,0,5.1-2.5,5.1-5.5C46.1,43.2,43.8,40.7,41,40.7zM59.2,40.7c-2.8,0-5.1,2.5-5.1,5.5s2.3,5.5,5.1,5.5c2.8,0,5.1-2.5,5.1-5.5S62,40.7,59.2,40.7z"/>
    <path fill="#FFFFFF" d="M83.5,0h-67C10.8,0,6.2,4.6,6.2,10.3v67.6c0,5.7,4.6,10.3,10.3,10.3h56.7L70.5,79l6.4,5.9l6.1,5.6l10.8,9.5V10.3C93.8,4.6,89.2,0,83.5,0z M64.2,65.3c0,0-1.8-2.2-3.3-4.1c6.6-1.8,9.1-5.9,9.1-5.9c-2.1,1.3-4,2.3-5.8,2.9c-2.5,1.1-4.9,1.8-7.2,2.2c-4.8,0.9-9.2,0.7-13-0.1c-2.8-0.6-5.3-1.3-7.3-2.2c-1.2-0.4-2.4-1-3.7-1.7c-0.2-0.1-0.3-0.2-0.5-0.2c-0.1-0.1-0.2-0.1-0.2-0.2c-0.9-0.5-1.4-0.8-1.4-0.8s2.4,4,8.8,5.9c-1.5,1.9-3.3,4.2-3.3,4.2c-11.1-0.3-15.3-7.6-15.3-7.6c0-16.1,7.2-29.2,7.2-29.2c7.2-5.4,14.1-5.2,14.1-5.2l0.5,0.6c-9,2.6-13.1,6.5-13.1,6.5s1.1-0.6,3-1.5c5.3-2.3,9.6-3,11.4-3.2c0.3,0,0.5-0.1,0.8-0.1c3-0.4,6.5-0.5,10.1-0.1c4.8,0.5,9.8,2,15.1,4.8c0,0-3.9-3.8-12.4-6.3l0.7-0.8c0,0,6.8-0.2,14.1,5.2c0,0,7.2,13.1,7.2,29.2C79.5,57.7,75.2,65,64.2,65.3z"/>
  </symbol>

  <!-- TELEGRAM -->
  <symbol id="icon-telegram" viewBox="0 0 100 100">
    <path fill="#FFFFFF" d="M98.8,9.1c-0.9-0.8-2.2-1-3.3-0.6C78.1,15,24.3,35.2,2.3,43.3C0.9,43.9,0,45.2,0,46.7c0.1,1.5,1,2.8,2.5,3.2c9.9,2.9,22.8,7.1,22.8,7.1s6,18.3,9.2,27.6c0.4,1.2,1.3,2.1,2.5,2.4c1.2,0.3,2.5,0,3.4-0.9c5.1-4.8,12.9-12.2,12.9-12.2s14.9,10.9,23.3,16.9c1.3,1,3.1,1.2,4.6,0.6c1.5-0.6,2.7-1.9,3-3.5c3.6-17,12.4-60.1,15.7-75.6C100.2,11.1,99.8,9.9,98.8,9.1zM81.7,24.8C66.3,38.7,39.3,63.1,39.3,63.1l-1.6,14.6l-7-23.1c0,0,31.7-20.2,49.6-31.6c0.5-0.3,1.2-0.2,1.6,0.3C82.2,23.7,82.2,24.4,81.7,24.8z"/>
  </symbol>

  <!-- TWITTER -->
  <symbol id="icon-twitter" viewBox="0 0 100 100">
    <path fill="#FFFFFF" d="M31.4,90.6c37.7,0,58.4-31.3,58.4-58.4c0-0.9,0-1.8-0.1-2.7c4-2.9,7.5-6.5,10.2-10.6c-3.7,1.7-7.7,2.7-11.8,3.2c4.3-2.6,7.5-6.6,9-11.3c-4,2.4-8.4,4.1-13,5c-7.8-8.3-20.8-8.7-29-0.9c-5.3,5-7.6,12.5-5.9,19.6C32.7,33.7,17.4,25.9,7,13.1c-5.4,9.4-2.7,21.4,6.4,27.4c-3.3-0.1-6.5-1-9.3-2.6c0,0.1,0,0.2,0,0.3c0,9.8,6.9,18.2,16.5,20.1c-3,0.8-6.2,0.9-9.3,0.4c2.7,8.4,10.4,14.1,19.2,14.2c-7.3,5.7-16.2,8.8-25.5,8.8c-1.6,0-3.3-0.1-4.9-0.3C9.4,87.4,20.3,90.6,31.4,90.6"/>
  </symbol>

  <!-- GITHUB -->
  <symbol id="icon-github" viewBox="0 0 100 100">
    <path fill="#FFFFFF" d="M50,1.2c-27.6,0-50,22.4-50,50c0,22.1,14.3,40.8,34.2,47.4c2.5,0.5,3.4-1.1,3.4-2.4c0-1.2,0-4.3-0.1-8.5c-13.9,3-16.8-6.7-16.8-6.7c-2.3-5.8-5.6-7.3-5.6-7.3c-4.5-3.1,0.3-3,0.3-3c5,0.4,7.7,5.2,7.7,5.2c4.5,7.6,11.7,5.4,14.6,4.2c0.5-3.2,1.7-5.4,3.2-6.7c-11.1-1.3-22.8-5.6-22.8-24.7c0-5.5,1.9-9.9,5.1-13.4c-0.5-1.3-2.2-6.3,0.5-13.2c0,0,4.2-1.3,13.7,5.1c4-1.1,8.3-1.7,12.5-1.7c4.2,0,8.5,0.6,12.5,1.7c9.5-6.5,13.7-5.1,13.7-5.1c2.7,6.9,1,12,0.5,13.2c3.2,3.5,5.1,8,5.1,13.4c0,19.2-11.7,23.4-22.8,24.7c1.8,1.5,3.4,4.6,3.4,9.3c0,6.7-0.1,12.1-0.1,13.7c0,1.3,0.9,2.9,3.4,2.4C85.7,92,100,73.3,100,51.2C100,23.6,77.6,1.2,50,1.2z"/>
  </symbol>

  <!-- MEDIUM -->
  <symbol id="icon-medium" viewBox="0 0 100 100">
    <path fill="#FFFFFF" d="M0,0v100h100V0H0z M83.1,23.7l-5.4,5.1c-0.5,0.4-0.7,0.9-0.6,1.5v37.8c-0.1,0.6,0.1,1.2,0.6,1.5l5.2,5.1v1.1H56.6v-1.1l5.4-5.3c0.5-0.5,0.5-0.7,0.5-1.5V37.5L47.5,75.8h-2L27.9,37.5v25.7c-0.1,1.1,0.2,2.2,1,2.9l7.1,8.6v1.1h-20v-1.1l7.1-8.6c0.8-0.8,1.1-1.9,0.9-2.9V33.4c0.1-0.8-0.2-1.6-0.8-2.2l-6.3-7.6v-1.1h19.5l15.1,33l13.2-33h18.6V23.7z"/>
  </symbol>
</svg>