<?xml version="1.0" encoding="utf-8"?>
<!-- Generator: Adobe Illustrator 22.1.0, SVG Export Plug-In . SVG Version: 6.00 Build 0)  -->
<svg version="1.1" id="Layer_1" xmlns="http://www.w3.org/2000/svg" xmlns:xlink="http://www.w3.org/1999/xlink" x="0px" y="0px"
	 viewBox="0 0 100 38.7" style="enable-background:new 0 0 100 38.7;" xml:space="preserve">
<style type="text/css">
	.st0{clip-path:url(#SVGID_2_);}
	.st1{clip-path:url(#SVGID_4_);fill:#FFFFFF;}
	.st2{clip-path:url(#SVGID_6_);}
	.st3{clip-path:url(#SVGID_8_);fill:#FFFFFF;}
	.st4{clip-path:url(#SVGID_10_);}
	.st5{clip-path:url(#SVGID_12_);fill:#FFFFFF;}
	.st6{clip-path:url(#SVGID_14_);}
	.st7{clip-path:url(#SVGID_16_);enable-background:new    ;}
	.st8{clip-path:url(#SVGID_18_);}
	.st9{clip-path:url(#SVGID_20_);}
	.st10{clip-path:url(#SVGID_22_);fill:#FB1FC2;}
</style>
<g>
	<defs>
		<path id="SVGID_1_" d="M6.9,24.9l-1.8-2.4l-0.4-1.5V18l0.4-1.7l1.8-2.5l2.1-1.2h2.5l1.4,0.5l1.4,0.9l0.7,0.9v7.5l-1.1,1.7
			l-2.4,1.7H9.2L6.9,24.9z M8.3,8l-4.4,2.2L1,14.2l-1,3.3v4l1,3.2l3.1,4l4.5,1.7h4l2.6-1.6v2.6l-0.4,1l-1.6,1.1l-1.7,0.6H8.8l-2-0.5
			L6,33l-1.4-1.4l-3.3,3.4l1.6,1.6L5.2,38l3,0.8h3.9l3.1-1.1l3.5-2.3l1.1-3.3V8.4h-4.6v0.9L14.8,9l-2.6-1H8.3z"/>
	</defs>
	<clipPath id="SVGID_2_">
		<use xlink:href="#SVGID_1_"  style="overflow:visible;"/>
	</clipPath>
	<g class="st0">
		<defs>
			<rect id="SVGID_3_" x="-88.5" y="-106.6" width="838.8" height="596.5"/>
		</defs>
		<clipPath id="SVGID_4_">
			<use xlink:href="#SVGID_3_"  style="overflow:visible;"/>
		</clipPath>
		<rect x="-2.9" y="5.1" class="st1" width="25.6" height="36.5"/>
	</g>
</g>
<g>
	<defs>
		<path id="SVGID_5_" d="M46.5,17.2l-1-3l-2.9-3.9L38.1,8h-3.9l-4.5,2.2l-2.9,3.9l-0.9,3.3v5l0.9,3.2l2.9,3.9l4.5,2.2h3.7l3.8-1
			l3.4-2.2l-2.4-3.8L40,26.4l-2.6,0.7h-2.2L32.9,26L31,23.5l-0.4-1h15.9V17.2z M30.6,17.8l0.3-1.4l1.9-2.5l2.1-1.1h2.4l2.2,1.2
			l1.8,2.5l0.5,1.4H30.6z"/>
	</defs>
	<clipPath id="SVGID_6_">
		<use xlink:href="#SVGID_5_"  style="overflow:visible;"/>
	</clipPath>
	<g class="st2">
		<defs>
			<rect id="SVGID_7_" x="-88.5" y="-106.6" width="838.8" height="596.5"/>
		</defs>
		<clipPath id="SVGID_8_">
			<use xlink:href="#SVGID_7_"  style="overflow:visible;"/>
		</clipPath>
		<rect x="23" y="5.1" class="st3" width="26.4" height="29.5"/>
	</g>
</g>
<g>
	<defs>
		<polygon id="SVGID_9_" points="57.3,9.8 60.3,8 64.3,8 68.3,9.1 71.1,12.8 71.1,31.4 66.4,31.4 66.4,14.5 65.6,13.4 63.4,12.7 
			61.1,12.7 58.4,14.5 57.3,15.9 57.3,31.4 52.6,31.4 52.6,8.4 57.3,8.4 		"/>
	</defs>
	<clipPath id="SVGID_10_">
		<use xlink:href="#SVGID_9_"  style="overflow:visible;"/>
	</clipPath>
	<g class="st4">
		<defs>
			<rect id="SVGID_11_" x="-88.5" y="-106.6" width="838.8" height="596.5"/>
		</defs>
		<clipPath id="SVGID_12_">
			<use xlink:href="#SVGID_11_"  style="overflow:visible;"/>
		</clipPath>
		<rect x="49.7" y="5.1" class="st5" width="24.3" height="29.2"/>
	</g>
</g>
<g>
	<defs>
		<polygon id="SVGID_13_" points="100,15.9 100,0 76.8,0 76.8,31.8 100,31.8 		"/>
	</defs>
	<clipPath id="SVGID_14_">
		<use xlink:href="#SVGID_13_"  style="overflow:visible;"/>
	</clipPath>
	<g class="st6">
		<defs>
			<rect id="SVGID_15_" x="-88.5" y="-106.6" width="838.8" height="596.5"/>
		</defs>
		<clipPath id="SVGID_16_">
			<use xlink:href="#SVGID_15_"  style="overflow:visible;"/>
		</clipPath>
		<g class="st7">
			<g>
				<defs>
					<rect id="SVGID_17_" x="76.3" y="0" width="23.9" height="32"/>
				</defs>
				<clipPath id="SVGID_18_">
					<use xlink:href="#SVGID_17_"  style="overflow:visible;"/>
				</clipPath>
				<g class="st8">
					<defs>
						<path id="SVGID_19_" d="M99.3,8.8L97.7,5l-3.1-3.1L90.6,0h-4.3l-4.1,1.9L79.1,5l-1.6,3.8l-0.7,3.9V19l0.7,3.9l1.6,3.8l3.1,3.1
							l4.1,1.9h4.3l4.1-1.9l3.1-3.1l1.6-3.8L100,19v-6.2L99.3,8.8z M82.5,16.7c0-3,0.1-5.9,1.3-8.8C84.9,5.4,87,4,89.1,4.3
							c2.3,0.3,4.3,2.4,4.8,4.8c0.1,0.5,0,0.8-0.3,1.1c-0.9,1-1.8,2-2.7,3c-1.7-2.1-2.3-2.2-4-0.5c-1.4,1.4-2.6,2.8-4,4.2
							C82.8,16.9,82.7,16.8,82.5,16.7z M92,25.7c-1.8,2-4.9,1.9-6.8-0.1c-2.7-2.8-2.5-4.4,1-7.2c1.4,1.8,2,1.9,3.7,0.2
							c1.5-1.5,2.9-3,4.6-4.5C94.7,18.3,94.9,22.4,92,25.7z"/>
					</defs>
					<clipPath id="SVGID_20_">
						<use xlink:href="#SVGID_19_"  style="overflow:visible;"/>
					</clipPath>
					<g class="st9">
						<defs>
							<rect id="SVGID_21_" x="76.3" y="0" width="23.9" height="32"/>
						</defs>
						<clipPath id="SVGID_22_">
							<use xlink:href="#SVGID_21_"  style="overflow:visible;"/>
						</clipPath>
						<rect x="73.9" y="-2.9" class="st10" width="29" height="37.6"/>
					</g>
				</g>
			</g>
		</g>
	</g>
</g>
</svg>
